<svg width="80" height="80" viewBox="0 0 80 80" fill="none" xmlns="http://www.w3.org/2000/svg">
<circle cx="40" cy="40" r="40" fill="white"/>
<path opacity="0.6" fill-rule="evenodd" clip-rule="evenodd" d="M43.8473 19.6516C43.8473 19.6516 44.2014 24.389 41.3897 27.9628C38.578 31.5366 29.6222 35.2143 26.2482 39.1206C22.8741 43.0268 22.1452 48.3876 23.0616 51.9198C23.9571 55.4313 31.3717 62.9945 39.786 62.1841C48.2003 61.3738 52.6782 59.0674 56.0939 54.2677C59.5096 49.468 59.5304 42.6528 58.0308 36.7934C56.5729 31.0795 55.0108 28.7939 54.5735 29.812C53.7404 31.7444 54.0111 31.1834 53.4488 33.1365C52.8864 35.0896 50.8662 38.8297 49.9706 37.9778C49.075 37.1051 50.887 36.3363 50.283 32.3885C49.679 28.4407 48.5752 25.6772 47.8046 24.5137C47.0339 23.3501 43.8473 19.6516 43.8473 19.6516Z" fill="#F6D159"/>
<path d="M58.6557 40.3465L59.6971 40.201C59.2805 37.209 58.739 33.2196 56.0939 29.7913C55.9065 29.5419 55.719 29.3341 55.5108 29.1471C55.3025 28.9809 55.0317 28.7524 54.5111 28.7316C54.157 28.7108 53.7612 28.9186 53.5738 29.1471C53.2822 29.4796 53.2197 29.7497 53.1572 30.0198C53.0948 30.2899 53.0739 30.56 53.0531 30.8925C52.949 32.3054 52.8448 33.1781 52.4075 34.03C51.9701 34.8819 51.137 35.8169 49.4083 37.1467L50.0331 37.9778L50.8454 38.6219C51.012 38.4141 51.012 38.331 51.0537 38.2063C51.1787 37.8531 51.3036 37.3544 51.4078 36.6272C51.5119 35.9 51.5952 34.9858 51.5952 33.9469C51.5952 32.4716 51.4286 30.7055 50.9287 28.8563C49.5749 23.9111 45.3053 18.2803 38.4739 14.4156C38.0157 14.1662 37.5575 14 37.0577 14C36.5786 14 36.0371 14.187 35.7039 14.6026C35.3498 14.9973 35.2248 15.496 35.2248 15.9531C35.2248 16.2232 35.2665 16.4934 35.329 16.7635C35.4956 17.4284 35.5997 18.0309 35.6206 18.5919L35.6414 19.0075C35.6414 20.6282 35.1207 21.8956 34.2251 23.0592C32.8922 24.8253 30.6636 26.3213 28.3518 27.942C26.0608 29.5835 23.6865 31.3496 22.2285 33.9261C20.5624 36.8973 20.0208 40.201 20 43.4424V43.5671C20 54.143 28.7059 63.1815 39.786 63.2438H39.8694C43.41 63.2438 47.638 62.101 51.3036 59.9401C54.9484 57.7792 58.0725 54.5171 59.0722 50.216C59.6971 47.4733 59.8637 45.0423 59.8637 43.2762C59.8637 41.3854 59.6762 40.2426 59.6762 40.1802L58.6557 40.3465L59.6971 40.201L58.6557 40.3465L57.6352 40.5127L57.656 40.6789C57.6976 41.0321 57.8018 41.9672 57.8018 43.2762C57.8018 44.9176 57.656 47.2032 57.0728 49.7589C56.2605 53.3327 53.6155 56.1793 50.2831 58.1532C46.9715 60.1271 42.9935 61.166 39.911 61.166H39.8277C29.9139 61.1244 22.1036 53.0003 22.1036 43.5671V43.4632C22.1244 40.4504 22.6242 37.5207 24.0613 34.9442C25.5817 32.1599 28.81 30.2068 31.83 28.0251C33.3296 26.9239 34.7667 25.7603 35.8913 24.3059C36.9952 22.8722 37.7241 21.0853 37.7241 18.9867L37.7033 18.4673C37.6617 17.7608 37.5575 17.0128 37.3492 16.244L37.3076 15.9531V15.8908L37.0368 15.8077L37.2034 16.0362L37.3284 15.8908L37.0577 15.8077L37.2243 16.0362L37.0368 15.7661L37.141 16.0986L37.2451 16.057L37.0577 15.7869L37.1618 16.1194L37.1201 15.9947V16.1401H37.1618L37.1201 16.0155V16.1609C37.1201 16.1609 37.2868 16.1817 37.5159 16.3064C43.9307 19.9217 47.8463 25.2201 48.9918 29.4796C49.45 31.1211 49.5958 32.7002 49.5958 34.03C49.5958 35.1104 49.4916 36.0247 49.3875 36.6688C49.325 36.9804 49.2833 37.2506 49.2209 37.4168L49.1792 37.583L49.8249 37.8531L49.2833 37.4376L49.1792 37.6038L49.8249 37.8739L49.2833 37.4583C48.9501 37.8739 48.9918 38.4557 49.3667 38.8297C49.7416 39.2037 50.3247 39.2452 50.7413 38.9128C52.5741 37.4999 53.6779 36.3571 54.3236 35.0896C54.9692 33.8222 55.0942 32.5755 55.1984 31.1418C55.2192 30.7886 55.2608 30.56 55.2817 30.5185L55.1358 30.4769L55.2817 30.56L55.3025 30.5393L55.1567 30.4977L55.3025 30.5808L54.7193 30.2692L55.115 30.7886L55.3025 30.5808L54.7193 30.2692L55.115 30.7886L54.6152 30.1237V30.9548L55.115 30.7886L54.6152 30.1237V30.9548V30.1029L54.3028 30.747L54.6152 30.8094V30.1029L54.3028 30.747L54.4277 30.5185L54.2611 30.7263L54.3028 30.747L54.4277 30.5185L54.2611 30.7263C54.2819 30.7263 54.4069 30.8509 54.5735 31.0795C56.8229 33.9676 57.3644 37.5207 57.7601 40.4919V40.5127L58.6557 40.3465Z" fill="#464646"/>
<path d="M46.3882 48.1174L47.4296 47.9719C47.2421 46.6214 46.3882 44.3773 44.2222 42.0294C43.1183 40.8243 42.1602 39.6607 39.7651 38.2686C39.536 38.144 39.2652 38.0193 38.932 38.0193C38.5987 38.0193 38.1822 38.1647 37.9323 38.4764C37.6823 38.7673 37.6199 39.1205 37.6199 39.3906L37.6823 39.8477C37.724 40.0348 37.7656 40.2218 37.7656 40.3672V40.4711C37.7656 40.9074 37.6407 41.1983 37.4116 41.5308C37.0575 42.0294 36.3494 42.5489 35.5371 43.1307C34.7457 43.7332 33.8293 44.3981 33.2253 45.4994C32.5796 46.6837 32.3922 47.9719 32.3713 49.1978V49.2394C32.3713 53.3534 35.6412 56.8857 39.89 56.9272H39.9317C41.3063 56.9272 42.8684 56.4909 44.243 55.639C45.6176 54.8079 46.8256 53.5197 47.2213 51.7535C47.4504 50.7146 47.5129 49.8004 47.5129 49.1355C47.5129 48.4291 47.4504 47.9719 47.4296 47.9304L46.3882 48.1174L47.4296 47.9719L46.3882 48.1174L45.3677 48.2836V48.3252C45.3885 48.4291 45.4093 48.7407 45.4093 49.1771C45.4093 49.7173 45.3676 50.4861 45.1802 51.338C44.9511 52.3769 44.1805 53.2703 43.1391 53.9144C42.1186 54.5586 40.8273 54.891 39.9109 54.891H39.89C36.8701 54.891 34.4333 52.2938 34.4541 49.2809V49.2602C34.4541 48.2421 34.6207 47.307 35.0581 46.5383C35.4538 45.7695 36.4744 45.0838 37.5574 44.2735C38.0989 43.8579 38.6404 43.4216 39.0986 42.819C39.5568 42.2164 39.8692 41.4269 39.8692 40.5334V40.3049C39.8484 40.014 39.8067 39.7023 39.7234 39.3906L39.5151 39.453H39.7234V39.3906L39.5151 39.453H39.7234H39.0361L39.536 39.8893C39.7026 39.7023 39.7026 39.5153 39.7026 39.453H39.0153L39.5151 39.8893L38.932 39.3906V40.1802C39.0778 40.1802 39.3693 40.0971 39.5151 39.8893L38.932 39.3906V40.1802V39.7646L38.7237 40.1386L38.932 40.1802V39.7646L38.7237 40.1386C40.9106 41.4269 41.5146 42.2372 42.7018 43.5254C44.5762 45.5409 45.2635 47.5356 45.3677 48.3252V48.3459L46.3882 48.1174Z" fill="#464646"/>
</svg>
