<svg width="80" height="80" viewBox="0 0 80 80" fill="none" xmlns="http://www.w3.org/2000/svg">
<circle cx="40" cy="40" r="40" fill="white"/>
<path opacity="0.6" d="M58.0508 36.8797C58.0508 36.8797 45.7418 36.0902 43.2217 37.4615C40.7016 38.8536 39.9726 40.3289 38.0149 43.9027C37.5358 44.7961 37.2442 46.2714 34.8283 46.9986C30.5378 48.2661 19.9991 49.4504 18.208 49.9491C18.0413 51.0503 18.208 59.6939 18.208 59.6939C18.208 59.6939 31.1418 59.2992 32.5372 59.3823C33.9327 59.4654 38.4314 60.255 41.5555 60.3381C44.6796 60.4212 53.6146 61.2939 54.7393 60.3381C55.864 59.3823 57.8634 58.4265 58.3841 57.0551C58.9048 55.663 58.3841 53.0658 58.3841 53.0658C58.3841 53.0658 60.6335 52.8164 60.6335 50.1984C60.6335 47.5804 59.842 45.4403 59.842 45.4403C59.842 45.4403 61.3208 43.0092 60.6335 41.2016C59.9462 39.3939 58.0508 36.8797 58.0508 36.8797Z" fill="#F6D159"/>
<path d="M62.3413 41.6795C62.2372 40.0588 61.0917 38.6251 60.3419 37.8563C60.6543 37.1706 61.0084 36.2564 61.0084 35.5915C61.0084 34.7188 61.0084 32.0385 58.3425 30.6048C56.6346 29.6906 51.5944 30.1061 47.5539 30.6256L48.3453 25.909C48.3661 25.8051 48.4703 25.5765 48.5536 25.3895C48.8868 24.6623 49.3867 23.5611 49.4491 21.5456C49.5325 19.3016 48.9909 16.0602 47.179 14.2733C46.2834 13.3799 45.1587 12.9435 43.9924 13.0059C43.0551 13.0474 42.2429 13.4214 41.6597 14.0863C40.3059 15.6031 40.5142 18.2419 40.6183 19.5094L40.6391 19.8418C40.5975 20.3613 38.7438 24.7454 36.7861 27.9868C36.0988 29.0464 35.4115 29.8983 34.745 30.7295C33.537 32.2463 32.3915 33.6592 31.8916 35.8616C31.4959 37.5862 29.6423 38.4173 29.2882 38.5628C28.9341 38.6459 28.6425 38.7913 28.4134 38.9783C28.4134 38.9783 28.3926 38.9575 28.3718 38.9575C28.1219 38.7498 27.8303 38.5212 27.2888 38.5212H19.895C18.4579 38.5212 17.2291 39.7471 17.0208 41.3678L17 58.759C17.0417 60.2965 18.333 61.5432 19.8742 61.5432H31.1002C31.8083 61.5432 32.4331 61.2315 32.8705 60.6705C32.9746 60.5459 33.058 60.4004 33.1413 60.2134C34.5784 60.5043 37.6608 61.1276 39.0563 61.2523C40.0351 61.3354 40.2851 61.377 40.7849 61.5016C41.1182 61.5848 41.5139 61.6679 42.1804 61.7718C42.7844 61.8757 43.5758 61.9172 44.6797 61.9172C45.5752 61.9172 46.5333 61.8964 47.6163 61.8549C48.5744 61.8341 49.6366 61.7925 50.5947 61.7925C53.7812 61.7925 55.1975 61.003 58.1758 58.8836C60.1544 57.4707 60.3419 55.7254 60.1336 54.5202C60.092 54.2086 60.0087 53.8969 59.8837 53.5852C60.6543 53.0035 61.8206 51.7152 61.7998 49.3465C61.7998 47.7258 61.3208 46.6454 60.8626 46.0013C61.6749 45.1494 62.4871 43.7365 62.3413 41.6795ZM58.4674 44.8377L56.5096 45.9597L58.5091 47.0194C58.5091 47.0194 59.3422 47.5181 59.3422 49.3258C59.3422 51.362 58.0717 51.7983 57.9467 51.8399L56.1972 52.297L57.2386 53.7515C57.3011 53.8346 57.5927 54.3125 57.676 54.8942C57.8009 55.6838 57.5094 56.3072 56.7179 56.8682C54.1145 58.7174 53.0523 59.32 50.5738 59.32C49.6158 59.32 48.5952 59.3615 47.4705 59.3823C45.6794 59.4446 43.6383 59.507 42.5969 59.32C41.9304 59.1953 41.5555 59.1122 41.2848 59.0498C40.7641 58.9252 40.41 58.8421 39.2437 58.759C37.8066 58.6551 34.0368 57.8655 33.2662 57.6993L30.1213 41.5132C30.1213 41.4093 30.1005 41.3055 30.0588 41.16L30.038 41.0769C30.0171 41.0146 30.0171 40.9522 30.0171 40.9107H30.038C30.1838 40.8691 33.5995 39.6432 34.3284 36.3811C34.7033 34.7396 35.5781 33.6592 36.6819 32.267C37.3276 31.4775 38.119 30.4801 38.8688 29.2335C40.6808 26.283 43.0968 21.1093 43.0968 19.8626C43.0968 19.7379 43.076 19.5509 43.0551 19.2808C42.9926 18.5744 42.826 16.4342 43.4925 15.707C43.6383 15.5615 43.8049 15.4992 44.0757 15.4784C44.5755 15.4577 45.0129 15.6239 45.4086 16.0187C46.4083 17.016 47.0332 19.1977 46.9499 21.4417C46.8874 22.9793 46.5333 23.7481 46.2625 24.3714C46.1168 24.7039 45.9501 25.0779 45.8668 25.4934C45.7419 26.3038 44.8046 31.8723 44.8046 31.8723L44.5339 33.5553L46.2209 33.3059C51.2611 32.5371 56.2597 32.3086 57.1553 32.7657C58.5091 33.4929 58.5091 34.7812 58.5091 35.5707C58.5091 35.7993 58.155 36.7135 57.7176 37.5446L57.2386 38.4381L58.0301 39.0822C58.5924 39.5393 59.8004 40.8276 59.8629 41.8249C60.0087 43.9443 58.5299 44.8169 58.4674 44.8377ZM19.895 40.973H27.3096C27.4554 40.973 27.5595 41.347 27.622 41.6379L30.9544 58.6758C30.996 58.8421 30.996 58.9875 30.9752 59.0706H19.9158C19.7284 59.0706 19.5201 58.8213 19.4993 58.6551V41.4509C19.4993 41.2639 19.6451 40.973 19.895 40.973Z" fill="#434343"/>
</svg>
