<svg width="422" height="432" viewBox="0 0 422 432" fill="none" xmlns="http://www.w3.org/2000/svg">
<path opacity="0.1" d="M237.064 368.296C286.968 368.296 327.423 362.153 327.423 354.576C327.423 346.998 286.968 340.855 237.064 340.855C187.16 340.855 146.705 346.998 146.705 354.576C146.705 362.153 187.16 368.296 237.064 368.296Z" fill="#434343"/>
<path opacity="0.1" d="M183.795 417.8C211.649 417.8 234.23 412.099 234.23 405.067C234.23 398.036 211.649 392.335 183.795 392.335C155.94 392.335 133.36 398.036 133.36 405.067C133.36 412.099 155.94 417.8 183.795 417.8Z" fill="#434343"/>
<path opacity="0.1" d="M253.714 409.376C253.714 412.097 244.984 414.301 234.23 414.301C223.475 414.301 214.746 412.097 214.746 409.376C214.746 406.655 223.475 404.452 234.23 404.452C244.984 404.452 253.714 406.655 253.714 409.376Z" fill="#434343"/>
<path opacity="0.1" d="M103.024 377.707C159.923 377.707 206.048 371.993 206.048 364.943C206.048 357.893 159.923 352.178 103.024 352.178C46.1255 352.178 0 357.893 0 364.943C0 371.993 46.1255 377.707 103.024 377.707Z" fill="#434343"/>
<path d="M336.104 7.58142C336.104 7.58142 332.946 7.58142 318.661 20.7186C307.129 31.3126 290.301 22.6787 278.688 35.7025C266.007 49.9088 274.542 65.8647 291.257 64.423C307.955 62.9975 321.932 43.0892 321.932 43.0892L333.156 23.197L338.533 22.4195V14.5631" fill="#131637"/>
<path d="M354.6 12.4412C354.6 12.4412 360.917 18.2241 354.665 24.2015C345.466 32.9812 341.659 44.1584 338.501 52.6304C335.343 61.1023 333.594 82.8411 315.794 79.3745C297.411 75.7946 311.68 57.3928 311.68 57.3928L325.722 30.0654L330.533 21.9337L334.792 14.79" fill="#131637"/>
<path d="M348.575 21.0103C348.332 19.2122 348.089 17.4303 347.846 15.6323C347.749 12.8461 351.393 15.94 352.657 13.5264C352.867 12.8947 352.397 10.2057 352.673 9.62251C350.146 6.12358 342.404 4.26072 336.104 7.58147C336.104 7.58147 328.897 10.481 330.873 23.7964L333.302 27.8299L340.898 26.5502L349.191 22.8083C348.964 22.209 348.737 21.6258 348.575 21.0103Z" fill="#131637"/>
<path d="M352.106 24.7683C352.106 24.7683 353.499 27.8461 351.474 32.3979L346.632 29.5955L352.106 24.7683Z" fill="#FF907D"/>
<path d="M348.656 32.8515C348.413 33.1269 346.211 35.6863 346.211 35.6863C346.211 35.6863 342.939 34.3094 342.923 31.6204C342.906 28.9314 342.906 28.9314 342.906 28.9314L343.894 28.1377L346.211 28.5589" fill="white"/>
<path d="M333.399 25.2543C333.399 25.2543 336.201 25.1895 338.501 22.4195C338.501 22.4195 335.181 19.4552 337.4 17.0739C339.246 15.0977 341.676 17.5275 341.449 20.0221L339.926 22.6463C339.926 22.6463 341.433 23.4563 344.591 18.5804L347.603 17.3655L353.58 20.8159C353.58 20.8159 352.883 27.101 348.64 32.8516L344.591 30.5189C344.591 30.5189 343.992 33.1917 346.453 35.411C345.514 36.4315 345.028 36.8365 343.797 37.7274L337.853 34.2933L335.343 38.6345L331.035 38.2134L327.552 37.4358L325.706 34.844L326.629 31.1183L330.856 23.8126L333.399 25.2543Z" fill="#FFCDA9"/>
<path d="M334.582 42.2954C334.582 42.2954 360.965 55.8052 379.72 28.4454L384.466 30.2921C384.466 30.2921 375.493 57.7814 336.363 57.3927C331.359 53.262 333.966 47.2684 333.966 47.2684" fill="#E03354"/>
<path d="M378.927 29.4984L383.883 31.8634L385.162 29.1258L380.32 26.777L378.927 29.4984Z" fill="#CC163C"/>
<path d="M273.311 67.7276C273.311 67.7276 278.769 83.1488 295.646 90.7946C306.044 79.0343 314.628 68.6185 330.533 62.8031C334.906 59.8063 336.12 46.1022 335.359 38.6183L325.058 30.7457L324.718 30.4218C320.086 32.2198 318.726 31.0859 307.113 39.7846C288.066 54.072 273.311 67.7276 273.311 67.7276Z" fill="#DF335E"/>
<path d="M334.679 43.073V87.8788C334.679 87.8788 339.797 85.3356 341.06 79.3583C341.06 79.3745 339.797 55.9834 334.679 43.073Z" fill="#001F78"/>
<path d="M333.059 41.9553L335.456 45.276C335.456 45.276 338.048 41.6637 335.456 38.4725L333.059 41.9553Z" fill="#003591"/>
<path d="M335.456 38.4725C335.456 38.4725 328.281 34.277 327.212 30.1301C327.212 30.1301 326.192 29.7899 323.957 30.5675C323.957 30.5675 324.508 36.5772 332.282 43.0891L335.456 38.4725Z" fill="#CC163C"/>
<path d="M338.501 22.4196C338.501 22.4196 337.303 27.4737 331.002 28.9478C331.002 28.9478 326.84 36.8204 315.243 35.7836C315.243 35.7836 311.081 55.7891 287.305 55.53C282.624 41.6152 292.277 32.3981 292.277 32.3981L319.859 22.4358L330.986 18.2404" fill="#131637"/>
<path d="M409.341 71.8446C416.276 55.0986 408.325 35.9002 391.582 28.9636C374.839 22.0271 355.643 29.9792 348.708 46.7251C341.772 63.4711 349.723 82.6696 366.467 89.6061C383.21 96.5427 402.405 88.5906 409.341 71.8446Z" fill="#FEDB32"/>
<path d="M379.024 30.2759C363.006 30.2759 350.017 43.2673 350.017 59.2879C350.017 75.3085 363.006 88.2999 379.024 88.2999C395.042 88.2999 408.031 75.3085 408.031 59.2879C408.031 43.2673 395.042 30.2759 379.024 30.2759ZM379.024 86.3561C364.075 86.3561 351.96 74.2394 351.96 59.2879C351.96 44.3364 364.075 32.2197 379.024 32.2197C393.973 32.2197 406.088 44.3364 406.088 59.2879C406.088 74.2394 393.973 86.3561 379.024 86.3561Z" fill="#FBB731"/>
<path d="M379.024 35.7836C366.035 35.7836 355.507 46.3128 355.507 59.3042C355.507 72.2956 366.035 82.8248 379.024 82.8248C392.013 82.8248 402.541 72.2956 402.541 59.3042C402.541 46.3128 392.013 35.7836 379.024 35.7836ZM379.024 81.2374C366.909 81.2374 357.094 71.4209 357.094 59.3042C357.094 47.1875 366.909 37.371 379.024 37.371C391.139 37.371 400.954 47.1875 400.954 59.3042C400.954 71.4047 391.139 81.2374 379.024 81.2374Z" fill="#FBB731"/>
<path d="M371.768 76.8151C371.768 76.8151 374.44 75.3086 375.526 75.1466C375.526 75.1466 380.838 73.5105 381.68 73.3162C381.68 73.3162 382.603 74.2557 381.259 75.1304C379.931 76.0052 378.004 76.6531 378.004 76.6531C378.004 76.6531 380.401 77.1715 381.939 76.9609C383.478 76.7341 386.539 76.3939 387.349 76.9447C388.159 77.4954 387.333 78.0462 387.333 78.0462C387.333 78.0462 382.636 78.5808 381.615 78.6942C380.725 78.8075 381.016 79.1315 381.016 79.1315C381.016 79.1315 386.474 78.9533 387.462 79.0667C388.45 79.1639 388.839 79.5689 388.466 80.3464C388.466 80.3464 384.239 80.6218 383.608 80.6704C382.976 80.719 380.919 80.5408 380.968 81.2212C380.968 81.2212 385.697 81.3346 386.507 81.3994C387.316 81.4641 387.673 81.9825 387.09 82.5819L380.563 82.76C380.563 82.76 380.109 82.7763 380.223 83.0678C380.336 83.327 383.041 84.137 383.365 84.2017C383.689 84.2665 384.709 84.5419 384.369 85.2871C384.369 85.2871 384.223 85.53 383.267 85.2709C382.312 85.0117 377.793 84.4123 377.793 84.4123C377.793 84.4123 374.716 84.0074 371.881 82.0635C369.015 80.1035 369.225 78.7914 369.744 80.638L370.618 79.0505L371.768 76.8151Z" fill="#FFCDA9"/>
<path d="M313.948 39.7037C315.648 36.4801 322.078 32.3332 327.212 42.9273C333.853 56.6314 342.437 74.5959 371.703 75.9566L372.999 82.4685C372.999 82.4685 339.165 88.9966 318.677 58.6725C316.102 54.882 310.53 46.1508 313.948 39.7037Z" fill="#E03354"/>
<path d="M369.97 76.0699L369.938 82.9706L372.951 82.8896L373.031 76.1509L369.97 76.0699Z" fill="#CC163C"/>
<path d="M377.809 26.5503L380.773 27.0201L383.883 32.5277C383.883 32.5277 384.596 32.4791 385.6 32.2847C385.47 31.3937 385.373 31.2318 385.324 30.7782C385.988 30.5838 387.025 30.3894 387.883 30.0169C388.564 29.7253 388.904 28.9639 388.677 28.2512C388.418 27.4412 387.851 26.3559 386.669 25.546C385.081 24.4607 380.223 23.4887 377.809 26.5503Z" fill="#FFD4A0"/>
<path d="M377.68 64.7794V69.477H373.372V64.7794H370.213V62.7221H373.372V60.5677H370.213V58.5429H373.372V46.491H380.79C385.924 46.491 389.276 48.775 389.276 53.586V53.7156C389.276 58.5753 385.778 60.7621 380.887 60.7621H377.68V62.7221H385.001V64.7794H377.68ZM380.79 57.6357C383.624 57.6357 385.13 56.2588 385.13 53.7156V53.586C385.13 50.8484 383.494 49.7955 380.79 49.7955H377.68V57.6357H380.79Z" fill="#F49B4B"/>
<path d="M243.543 343.868C243.543 348.048 240.158 351.433 235.979 351.433C231.8 351.433 228.415 348.048 228.415 343.868C228.415 339.689 231.8 336.303 235.979 336.303C240.158 336.303 243.543 339.689 243.543 343.868Z" fill="#FDE0BC"/>
<path d="M242.069 343.868C242.069 347.238 239.332 349.975 235.963 349.975C232.594 349.975 229.857 347.238 229.857 343.868C229.857 340.499 232.594 337.761 235.963 337.761C239.348 337.761 242.069 340.499 242.069 343.868Z" fill="#D5E6FF"/>
<path d="M241.437 343.868C241.437 346.881 238.992 349.327 235.979 349.327C232.967 349.327 230.521 346.881 230.521 343.868C230.521 340.855 232.967 338.409 235.979 338.409C238.992 338.409 241.437 340.855 241.437 343.868Z" fill="white"/>
<path d="M81.6938 207.069L28.7807 237.491L36.15 238.252C36.15 238.252 59.2458 235.839 73.3851 222.669" fill="#00216C"/>
<path d="M79.977 220.304L114.086 238.997L92.3671 213.5L81.6938 209.191" fill="#00216C"/>
<path d="M149.038 225.73L117.066 215.833L83.8155 204.915L51.4392 237.766H57.2375C57.2375 237.766 77.4989 230.477 85.3703 215.493L114.086 238.997C114.086 238.997 128.047 246.19 136.129 241.945C147.418 236.001 149.038 225.73 149.038 225.73Z" fill="#003591"/>
<path d="M149.038 225.73L120.824 216.999C119.982 216.74 146.673 231.773 146.705 231.789C148.617 228.403 149.038 225.73 149.038 225.73Z" fill="#002974"/>
<path d="M57.2375 237.766V243.29H37.6238L51.4392 237.766H57.2375Z" fill="#000F1F"/>
<path d="M36.7493 238.139L34.7895 243.29L16.4392 236.292L31.3235 236.065L36.7493 238.139Z" fill="#000F1F"/>
<path d="M129.683 173.344C129.683 173.344 133.668 179.856 132.437 190.628C132.437 190.628 102.846 190.725 84.3662 159.235L89.3223 154.861C89.3223 154.861 110.377 176.049 129.683 173.344Z" fill="#E03354"/>
<path d="M127.464 173.587L115.884 186.967L122.978 189.235L127.464 173.587Z" fill="#BF0A32"/>
<path d="M86.6661 153.743C86.6661 153.743 86.4393 150.86 86.002 149.92C86.002 149.92 84.4958 144.882 84.2204 144.105C84.2204 144.105 83.0057 143.878 83.0219 145.385C83.0381 146.891 83.5402 148.738 83.5402 148.738C83.5402 148.738 81.872 147.134 81.2403 145.806C80.6087 144.477 79.2644 141.886 78.4222 141.545C77.5638 141.205 77.5638 142.145 77.5638 142.145C77.5638 142.145 79.6045 146.13 80.0418 146.988C80.4143 147.733 80.0094 147.685 80.0094 147.685C80.0094 147.685 77.2884 143.295 76.6892 142.582C76.0899 141.853 75.5717 141.756 75.1667 142.469C75.1667 142.469 77.1751 145.935 77.4666 146.47C77.7581 146.988 78.9891 148.511 78.4222 148.835C78.4222 148.835 75.847 145.174 75.3773 144.575C74.8914 143.975 74.3083 143.959 74.1464 144.737L77.418 149.969C77.418 149.969 77.6448 150.341 77.3532 150.39C77.0941 150.439 75.021 148.738 74.8104 148.511C74.5837 148.284 73.8387 147.636 73.4176 148.3C73.4176 148.3 73.3042 148.543 74.0168 149.159C74.7133 149.774 77.5638 153.014 77.5638 153.014C77.5638 153.014 79.4911 155.217 82.5198 156.432C85.5647 157.647 86.4879 156.805 84.7711 157.372L85.5647 155.849L86.6661 153.743Z" fill="#FFCDA9"/>
<path d="M81.9206 156.578L86.9576 152.334L89.3223 154.861L84.3662 159.251L81.9206 156.578Z" fill="#CC163C"/>
<path d="M125.796 148.576C125.796 148.576 122.006 154.585 120.743 163.43C120.743 163.43 123.739 165.957 130.056 165.957V174.137L137.571 169.748V164.062L135.805 163.754L137.004 161.373C137.004 161.373 139.531 161.195 140.389 158.603C141.264 156.011 138.3 156.643 137.571 156.967L136.534 158.603C136.534 158.603 136.81 154.909 139.045 153.954L138.267 150.325C138.283 150.309 132.599 151.572 125.796 148.576Z" fill="#FFCDA9"/>
<path d="M135.822 163.738L137.588 164.046V165.941C137.588 165.941 138.721 165.471 139.434 163.722C139.434 163.722 148.196 161.697 146.074 151.232C146.074 151.232 147.726 144.494 142.689 141.626C137.652 138.759 129.992 141.205 125.246 137.803C125.246 137.803 119.95 140.347 122.979 145.287L120.76 145.433C120.76 145.433 124.582 150.941 130.672 150.098L128.842 151.864C128.842 151.864 133.474 153.014 138.284 150.277L139.061 153.905C139.061 153.905 136.697 154.537 136.551 158.554L137.588 156.918C137.588 156.918 139.256 156.043 140.163 157.258C141.054 158.473 139.288 160.822 137.021 161.324L135.822 163.738Z" fill="#131637"/>
<path d="M127.464 152.852V157.582H125.229L127.464 152.852Z" fill="#FF907D"/>
<path d="M122.978 158.894C123.318 160.903 125.067 162.442 127.173 162.442C129.278 162.442 131.011 160.903 131.368 158.894H122.978Z" fill="white"/>
<path d="M126.233 178.3L125.31 175.838C125.051 175.142 125.391 174.38 126.088 174.105L128.549 173.182L129.959 176.907L126.233 178.3Z" fill="#001A79"/>
<path d="M126.363 177.734C126.363 177.734 117.844 192.296 121.747 206.94C127.043 194.062 129.78 181.151 129.78 181.151" fill="#001A79"/>
<path d="M149.038 225.73L120.824 216.999L126.363 177.733C126.363 177.733 128.873 169.051 135.773 169.764C142.025 170.412 147.839 179.013 148.568 189.218C149.378 200.574 149.038 225.73 149.038 225.73Z" fill="#DF335E"/>
<path d="M138.834 170.719L138.17 166.799C138.17 166.799 131.74 167.35 128.307 171.789L128.517 173.506C128.517 173.506 134.348 171.432 138.834 170.719Z" fill="#CC163C"/>
<path d="M121.148 214.683C131.173 216.611 137.36 215.914 137.36 215.914C137.36 215.914 142.268 191.891 142.527 186.06C142.802 180.147 141.652 174.364 135.417 174.623C129.019 174.899 129.327 183.938 129.327 183.938L129.699 204.591L122.67 203.943L121.148 214.683Z" fill="#BF0A33"/>
<path d="M127.772 183.468C127.772 183.468 128.274 174.38 134.963 174.737C141.604 175.093 142.219 181.151 141.312 187.113C140.421 192.928 133.036 215.477 133.036 215.477C133.036 215.477 115.592 214.667 93.9219 200.282L95.0881 196.427L126.363 203.603L127.772 183.468Z" fill="#E03354"/>
<path d="M92.6101 196.006L85.6781 193.608L79.2968 194.807L76.8997 201.853C76.8997 201.853 78.4546 202.68 79.977 198.533H81.6938C81.6938 198.533 84.4796 200.525 86.9576 200.396C89.4194 200.266 91.8326 200.493 91.8326 200.493L92.6101 196.006Z" fill="#FFCDA9"/>
<path d="M91.8062 200.496L95.0916 201.078L95.8886 196.58L92.6032 195.998L91.8062 200.496Z" fill="#CC163C"/>
<path d="M63.9913 183.014C64.6716 183.371 64.9307 184.229 64.9307 184.229L71.5874 205.028L69.9515 205.385L62.7604 182.885C62.7442 182.885 63.2787 182.626 63.9913 183.014Z" fill="#003591"/>
<path d="M97.2098 203.49H70.0164V205.369H97.2098V203.49Z" fill="#003591"/>
<path d="M127.044 32.3311C129.907 20.2028 122.398 8.04932 110.271 5.18549C98.1451 2.32167 85.9935 9.83198 83.1302 21.9602C80.2668 34.0885 87.7759 46.242 99.9023 49.1058C112.029 51.9697 124.18 44.4593 127.044 32.3311Z" fill="#FEDB32"/>
<path d="M105.081 7.19275C94.0677 7.19275 85.1436 16.1183 85.1436 27.1335C85.1436 38.1486 94.0677 47.0742 105.081 47.0742C116.095 47.0742 125.019 38.1486 125.019 27.1335C125.019 16.1345 116.095 7.19275 105.081 7.19275ZM105.081 45.7459C94.8128 45.7459 86.4717 37.4197 86.4717 27.1335C86.4717 16.8634 94.7966 8.52105 105.081 8.52105C115.366 8.52105 123.691 16.8472 123.691 27.1335C123.674 37.4197 115.35 45.7459 105.081 45.7459Z" fill="#FBB731"/>
<path d="M105.081 10.9833C96.1571 10.9833 88.9174 18.2241 88.9174 27.1497C88.9174 36.0752 96.1571 43.3161 105.081 43.3161C114.005 43.3161 121.245 36.0752 121.245 27.1497C121.245 18.2241 114.005 10.9833 105.081 10.9833ZM105.081 42.2307C96.7563 42.2307 90.0025 35.4758 90.0025 27.1497C90.0025 18.8235 96.7563 12.0686 105.081 12.0686C113.406 12.0686 120.16 18.8235 120.16 27.1497C120.16 35.4758 113.406 42.2307 105.081 42.2307Z" fill="#FBB731"/>
<path d="M140.94 55.8862C140.94 62.4629 135.611 67.7923 129.035 67.7923C122.46 67.7923 117.131 62.4629 117.131 55.8862C117.131 49.3095 122.46 43.9801 129.035 43.9801C135.611 43.9801 140.94 49.3095 140.94 55.8862Z" fill="#FEDB32"/>
<path d="M129.052 45.3732C123.237 45.3732 118.54 50.087 118.54 55.8862C118.54 61.7015 123.253 66.3992 129.052 66.3992C134.85 66.3992 139.563 61.6853 139.563 55.8862C139.563 50.0708 134.85 45.3732 129.052 45.3732ZM129.052 65.7026C123.626 65.7026 119.237 61.3128 119.237 55.8862C119.237 50.4596 123.626 46.0697 129.052 46.0697C134.477 46.0697 138.866 50.4596 138.866 55.8862C138.866 61.3128 134.461 65.7026 129.052 65.7026Z" fill="#FBB731"/>
<path d="M129.052 47.3656C124.338 47.3656 120.532 51.1885 120.532 55.8862C120.532 60.6 124.355 64.4067 129.052 64.4067C133.765 64.4067 137.571 60.5838 137.571 55.8862C137.571 51.1723 133.765 47.3656 129.052 47.3656ZM129.052 63.8398C124.662 63.8398 121.099 60.276 121.099 55.8862C121.099 51.4963 124.662 47.9326 129.052 47.9326C133.441 47.9326 137.004 51.4963 137.004 55.8862C137.004 60.276 133.441 63.8398 129.052 63.8398Z" fill="#FBB731"/>
<path d="M104.838 31.8958V35.3947H101.615V31.8958H99.2829V30.3569H101.631V28.7532H99.2829V27.2468H101.631V18.2402H107.17C111.009 18.2402 113.503 19.9411 113.503 23.5372V23.6344C113.503 27.263 110.879 28.8828 107.235 28.8828H104.838V30.3407H110.313V31.8796H104.838V31.8958ZM107.17 26.5664C109.276 26.5664 110.41 25.5297 110.41 23.6344V23.5372C110.41 21.4962 109.179 20.7024 107.17 20.7024H104.838V26.5502H107.17V26.5664Z" fill="#F49B4B"/>
<path d="M128.792 59.1422V61.1509H126.946V59.1422H125.602V58.2675H126.946V57.3442H125.602V56.4694H126.946V51.302H130.121C132.323 51.302 133.765 52.2739 133.765 54.3474V54.396C133.765 56.4694 132.258 57.4089 130.169 57.4089H128.792V58.2513H131.935V59.126H128.792V59.1422ZM130.121 56.0806C131.335 56.0806 131.983 55.4813 131.983 54.396V54.3474C131.983 53.1811 131.287 52.7275 130.121 52.7275H128.792V56.0968H130.121V56.0806Z" fill="#F49B4B"/>
<path d="M94.3107 127.712L106.069 139.472V115.903L94.3107 127.712Z" fill="#78B930"/>
<path d="M88.0826 130.428C110.107 125.227 123.745 103.153 118.545 81.1255C113.344 59.0978 91.274 45.4574 69.2499 50.6588C47.2257 55.8601 33.5874 77.9336 38.788 99.9612C43.9885 121.989 66.0585 135.629 88.0826 130.428Z" fill="#78B930"/>
<path d="M78.6651 125.395C97.9056 125.395 113.503 109.795 113.503 90.5516C113.503 71.308 97.9056 55.708 78.6651 55.708C59.4246 55.708 43.827 71.308 43.827 90.5516C43.827 109.795 59.4246 125.395 78.6651 125.395Z" fill="#1F680D"/>
<path d="M101.421 89.758C101.421 82.9383 95.8979 77.3983 89.0631 77.3983C84.6901 77.3983 80.8678 79.6823 78.6651 83.1003C76.4624 79.6661 72.6401 77.3983 68.2671 77.3983C61.4485 77.3983 55.9094 82.9221 55.9094 89.758C55.9094 94.488 58.5656 98.5863 62.4689 100.66L78.6651 110.152L94.8613 100.66C98.7646 98.5863 101.421 94.488 101.421 89.758Z" fill="#A9D475"/>
<path d="M295.031 354.576H176.911C164.035 354.576 153.605 344.144 153.605 331.266V76.2805C153.605 63.4025 164.035 52.9705 176.911 52.9705H295.031C307.906 52.9705 318.337 63.4025 318.337 76.2805V331.266C318.353 344.144 307.906 354.576 295.031 354.576Z" fill="#1F680D"/>
<path d="M297.541 57.2469H174.401C162.934 57.2469 153.589 66.5775 153.589 78.0624V333.776C153.589 345.245 162.918 354.592 174.401 354.592H297.541C309.008 354.592 318.353 345.261 318.353 333.776V78.0462C318.353 66.5774 309.008 57.2469 297.541 57.2469Z" fill="#FDE0BC"/>
<path d="M296.553 351.709H175.389C164.942 351.709 156.472 343.237 156.472 332.788V79.0506C156.472 68.6023 164.942 60.1304 175.389 60.1304H296.553C307 60.1304 315.47 68.6023 315.47 79.0506V332.772C315.47 343.22 307 351.709 296.553 351.709Z" fill="white"/>
<path d="M308.23 73.4457H163.728V330.245H308.23V73.4457Z" fill="#A9D475"/>
<g opacity="0.48">
<g opacity="0.48">
<g opacity="0.44">
<path opacity="0.44" d="M199.781 175.595L213.321 193.106L187.601 225.374L199.781 175.595Z" fill="#1F680D"/>
<path opacity="0.44" d="M157.411 187.096L170.919 183.419L187.601 225.374L155.678 222.28L157.411 187.096Z" fill="#1F680D"/>
<path opacity="0.44" d="M182.046 135.941L206.243 150.876L213.321 162.086L199.781 175.595L183.439 167.269L182.046 135.941Z" fill="#1F680D"/>
<path opacity="0.44" d="M220.479 245.801L235.655 269.921L216.479 290.234L194.889 273.258L220.479 245.801Z" fill="#1F680D"/>
<path opacity="0.44" d="M279.401 259.813L315.47 296.292L311.113 267.442L279.401 259.813Z" fill="#1F680D"/>
<path opacity="0.44" d="M250.329 186.335L252.823 181.605L246.069 180.844L250.329 186.335Z" fill="#1F680D"/>
<path opacity="0.44" d="M261.877 242.124L242.474 222.28L260.614 200.136L280.535 225.374L261.877 242.124Z" fill="#1F680D"/>
<g opacity="0.44">
<path opacity="0.44" d="M279.093 338.928L220.479 245.801L149.443 246.4L153.233 221.827L187.601 225.374L244.012 198.306L149.443 149.726L146.884 189.947L199.781 175.595L213.321 193.106L313.446 294.187L210.292 296.778L313.446 187.518L275.854 161.146L286.932 126.837L233.436 164.515L313.446 267.912L220.479 245.801" stroke="#00FFFF" stroke-width="0.1623" stroke-miterlimit="10" stroke-linecap="round" stroke-linejoin="round"/>
<path opacity="0.44" d="M187.601 281.082L220.479 245.801L187.601 225.374L213.321 193.106L244.012 198.306L260.128 167.739L213.321 162.085L222.666 136.216L172.619 115.465" stroke="#00FFFF" stroke-width="0.1623" stroke-miterlimit="10" stroke-linecap="round" stroke-linejoin="round"/>
</g>
<path opacity="0.44" d="M181.754 129.526L183.439 167.188L170.919 183.419L187.601 225.374L199.78 175.595L213.321 162.085L201.465 142.971L201.935 123.937L238.36 114.655L285.88 116.324L222.666 136.216L233.436 164.515L313.446 145.514L317.252 171.076L260.614 200.136L313.446 222.896L251.819 296.778L311.259 329.889" stroke="#00FFFF" stroke-width="0.1623" stroke-miterlimit="10" stroke-linecap="round" stroke-linejoin="round"/>
<path opacity="0.44" d="M168.538 278.749L190.937 245.801L203.894 235.725L242.474 222.28L260.614 200.136L275.854 161.146L260.128 167.739L199.78 175.595L315.956 188.781" stroke="#00FFFF" stroke-width="0.1623" stroke-miterlimit="10" stroke-linecap="round" stroke-linejoin="round"/>
</g>
</g>
</g>
<path d="M163.728 250.579L273.506 327.686L205.951 309.754L163.728 275.169V250.579Z" fill="#A9D475"/>
<path d="M264.744 322.162C237.664 305.25 190.047 277.696 163.728 262.583V330.245H276.259C272.696 327.426 268.825 324.721 264.744 322.162Z" fill="#78B930"/>
<path d="M250.345 69.7847H221.597C219.864 69.7847 218.455 68.3755 218.455 66.6422C218.455 64.9089 219.864 63.4996 221.597 63.4996H250.345C252.078 63.4996 253.487 64.9089 253.487 66.6422C253.487 68.3755 252.078 69.7847 250.345 69.7847Z" fill="#95BEFF"/>
<path d="M222.957 66.0915C223.413 66.0915 223.783 65.7216 223.783 65.2653C223.783 64.8091 223.413 64.4392 222.957 64.4392C222.501 64.4392 222.131 64.8091 222.131 65.2653C222.131 65.7216 222.501 66.0915 222.957 66.0915Z" fill="white"/>
<path d="M223.783 68.0354C223.783 68.4889 223.411 68.8615 222.957 68.8615C222.504 68.8615 222.131 68.4889 222.131 68.0354C222.131 67.5818 222.504 67.2092 222.957 67.2092C223.411 67.2254 223.783 67.5818 223.783 68.0354Z" fill="white"/>
<path d="M227.492 65.2653C227.492 65.7189 227.12 66.0915 226.666 66.0915C226.213 66.0915 225.84 65.7189 225.84 65.2653C225.84 64.8118 226.213 64.4392 226.666 64.4392C227.136 64.4554 227.492 64.828 227.492 65.2653Z" fill="white"/>
<path d="M227.492 68.0354C227.492 68.4889 227.12 68.8615 226.666 68.8615C226.213 68.8615 225.84 68.4889 225.84 68.0354C225.84 67.5818 226.213 67.2092 226.666 67.2092C227.136 67.2254 227.492 67.5818 227.492 68.0354Z" fill="white"/>
<path d="M231.217 65.2653C231.217 65.7189 230.845 66.0915 230.391 66.0915C229.938 66.0915 229.565 65.7189 229.565 65.2653C229.565 64.8118 229.938 64.4392 230.391 64.4392C230.845 64.4554 231.217 64.828 231.217 65.2653Z" fill="white"/>
<path d="M231.217 68.0354C231.217 68.4889 230.845 68.8615 230.391 68.8615C229.938 68.8615 229.565 68.4889 229.565 68.0354C229.565 67.5818 229.938 67.2092 230.391 67.2092C230.845 67.2254 231.217 67.5818 231.217 68.0354Z" fill="white"/>
<path d="M234.926 65.2653C234.926 65.7189 234.554 66.0915 234.1 66.0915C233.647 66.0915 233.274 65.7189 233.274 65.2653C233.274 64.8118 233.647 64.4392 234.1 64.4392C234.554 64.4392 234.926 64.828 234.926 65.2653Z" fill="white"/>
<path d="M234.926 68.0354C234.926 68.4889 234.554 68.8615 234.1 68.8615C233.647 68.8615 233.274 68.4889 233.274 68.0354C233.274 67.5818 233.647 67.2092 234.1 67.2092C234.554 67.2092 234.926 67.5818 234.926 68.0354Z" fill="white"/>
<path d="M237.825 66.0915C238.282 66.0915 238.651 65.7216 238.651 65.2653C238.651 64.8091 238.282 64.4392 237.825 64.4392C237.369 64.4392 236.999 64.8091 236.999 65.2653C236.999 65.7216 237.369 66.0915 237.825 66.0915Z" fill="white"/>
<path d="M238.651 68.0354C238.651 68.4889 238.279 68.8615 237.825 68.8615C237.372 68.8615 236.999 68.4889 236.999 68.0354C236.999 67.5818 237.372 67.2092 237.825 67.2092C238.279 67.2254 238.651 67.5818 238.651 68.0354Z" fill="white"/>
<path d="M242.36 65.2653C242.36 65.7189 241.988 66.0915 241.534 66.0915C241.081 66.0915 240.708 65.7189 240.708 65.2653C240.708 64.8118 241.081 64.4392 241.534 64.4392C242.004 64.4554 242.36 64.828 242.36 65.2653Z" fill="white"/>
<path d="M242.36 68.0354C242.36 68.4889 241.988 68.8615 241.534 68.8615C241.081 68.8615 240.708 68.4889 240.708 68.0354C240.708 67.5818 241.081 67.2092 241.534 67.2092C242.004 67.2254 242.36 67.5818 242.36 68.0354Z" fill="white"/>
<path d="M246.085 65.2653C246.085 65.7189 245.713 66.0915 245.259 66.0915C244.806 66.0915 244.433 65.7189 244.433 65.2653C244.433 64.8118 244.806 64.4392 245.259 64.4392C245.713 64.4554 246.085 64.828 246.085 65.2653Z" fill="white"/>
<path d="M246.085 68.0354C246.085 68.4889 245.713 68.8615 245.259 68.8615C244.806 68.8615 244.433 68.4889 244.433 68.0354C244.433 67.5818 244.806 67.2092 245.259 67.2092C245.713 67.2254 246.085 67.5818 246.085 68.0354Z" fill="white"/>
<path d="M249.794 65.2653C249.794 65.7189 249.422 66.0915 248.968 66.0915C248.515 66.0915 248.142 65.7189 248.142 65.2653C248.142 64.8118 248.515 64.4392 248.968 64.4392C249.438 64.4554 249.794 64.828 249.794 65.2653Z" fill="white"/>
<path d="M249.794 68.0354C249.794 68.4889 249.422 68.8615 248.968 68.8615C248.515 68.8615 248.142 68.4889 248.142 68.0354C248.142 67.5818 248.515 67.2092 248.968 67.2092C249.438 67.2254 249.794 67.5818 249.794 68.0354Z" fill="white"/>
<path d="M210.357 66.6584C210.357 69.0882 208.381 71.0645 205.951 71.0645C203.522 71.0645 201.546 69.0882 201.546 66.6584C201.546 64.2286 203.522 62.2523 205.951 62.2523C208.397 62.2523 210.357 64.2286 210.357 66.6584Z" fill="#FDE0BC"/>
<path d="M210.05 66.6592C210.05 68.927 208.22 70.7575 205.952 70.7575C203.685 70.7575 201.854 68.927 201.854 66.6592C201.854 64.3914 203.685 62.5609 205.952 62.5609C208.22 62.5609 210.05 64.3914 210.05 66.6592Z" fill="white"/>
<path d="M205.951 70.2707C207.946 70.2707 209.563 68.6534 209.563 66.6583C209.563 64.6633 207.946 63.046 205.951 63.046C203.957 63.046 202.339 64.6633 202.339 66.6583C202.339 68.6534 203.957 70.2707 205.951 70.2707Z" fill="#001965"/>
<path d="M207.684 66.6584C207.684 67.6142 206.907 68.3917 205.951 68.3917C204.996 68.3917 204.218 67.6142 204.218 66.6584C204.218 65.7027 204.996 64.9252 205.951 64.9252C206.907 64.9252 207.684 65.7027 207.684 66.6584Z" fill="#000025"/>
<path opacity="0.3" d="M205.951 65.5731C205.951 66.2696 205.384 66.8366 204.688 66.8366C203.992 66.8366 203.425 66.2696 203.425 65.5731C203.425 64.8765 203.992 64.3096 204.688 64.3096C205.384 64.3096 205.951 64.8765 205.951 65.5731Z" fill="white"/>
<path opacity="0.3" d="M206.21 66.4153C206.21 66.7231 205.951 66.9823 205.644 66.9823C205.336 66.9823 205.077 66.7231 205.077 66.4153C205.077 66.1076 205.336 65.8484 205.644 65.8484C205.967 65.8484 206.21 66.1076 206.21 66.4153Z" fill="white"/>
<path opacity="0.3" d="M207.684 68.8777C207.684 69.0397 207.555 69.1531 207.409 69.1531C207.247 69.1531 207.134 69.0235 207.134 68.8777C207.134 68.7157 207.263 68.6023 207.409 68.6023C207.555 68.6023 207.684 68.7319 207.684 68.8777Z" fill="white"/>
<g opacity="0.55">
<path opacity="0.55" d="M217.807 212.302L209.628 228.209C207.409 232.518 206.988 237.556 208.478 242.172L227.751 302.351C229.079 306.481 233.501 308.749 237.615 307.437L275.838 295.191C279.968 293.863 282.235 289.44 280.924 285.326L261.65 225.147C260.176 220.531 256.905 216.675 252.596 214.456L236.692 206.276C229.808 202.712 221.354 205.417 217.807 212.302Z" fill="#1F680D"/>
</g>
<g opacity="0.88">
<path opacity="0.88" d="M226.002 205.369C229.42 204.267 233.258 204.478 236.692 206.26L252.596 214.44C256.905 216.659 260.176 220.515 261.65 225.131L280.924 285.31C282.252 289.44 279.968 293.863 275.838 295.175L237.615 307.421C233.485 308.749 229.063 306.465 227.751 302.335L208.478 242.156C207.004 237.539 207.409 232.502 209.628 228.193L217.807 212.286C219.588 208.868 222.585 206.47 226.002 205.369ZM225.176 202.809C220.933 204.17 217.467 207.102 215.426 211.071L207.247 226.978C204.688 231.967 204.218 237.653 205.919 242.982L225.192 303.161C226.958 308.685 232.902 311.746 238.441 309.98L276.664 297.734C282.187 295.968 285.248 290.024 283.483 284.484L264.209 224.305C262.492 218.959 258.816 214.618 253.827 212.043L237.923 203.862C233.954 201.821 229.436 201.449 225.176 202.809Z" fill="#1F680D"/>
</g>
<path d="M232.821 211.103C233.614 213.598 232.254 216.27 229.76 217.064C227.265 217.858 224.593 216.497 223.799 214.003C223.006 211.508 224.366 208.835 226.861 208.041C229.355 207.232 232.011 208.608 232.821 211.103Z" fill="#1F680D"/>
<path d="M231.412 211.557C231.962 213.274 231.023 215.104 229.306 215.655C227.589 216.206 225.759 215.266 225.209 213.549C224.658 211.832 225.597 210.001 227.314 209.451C229.015 208.9 230.861 209.839 231.412 211.557Z" fill="#1F680D"/>
<path d="M242.927 268.495L244.757 274.44L239.299 276.125L237.469 270.18L233.485 271.411L232.675 268.803L236.659 267.572L235.817 264.851L231.833 266.082L231.039 263.522L235.023 262.291L230.327 247.016L239.737 244.116C246.247 242.108 251.365 243.695 253.26 249.802L253.309 249.964C255.204 256.119 251.608 260.25 245.421 262.145L241.356 263.393L242.117 265.871L251.398 263.02L252.208 265.628L242.927 268.495ZM244.093 258.242C247.673 257.14 249.049 254.791 248.061 251.584L248.013 251.422C246.944 247.955 244.45 247.259 241.032 248.312L237.08 249.527L240.141 259.456L244.093 258.242Z" fill="#1F680D"/>
<g opacity="0.5">
<path opacity="0.5" d="M263.253 185.995H212.414C205.141 185.995 199.23 180.082 199.23 172.809C199.23 165.536 205.141 159.623 212.414 159.623H263.253C270.526 159.623 276.437 165.536 276.437 172.809C276.437 180.082 270.526 185.995 263.253 185.995ZM212.414 161.535C206.194 161.535 201.141 166.589 201.141 172.809C201.141 179.029 206.194 184.083 212.414 184.083H263.253C269.473 184.083 274.526 179.029 274.526 172.809C274.526 166.589 269.473 161.535 263.253 161.535H212.414Z" fill="#1F680D"/>
</g>
<path d="M263.253 185.039H212.414C205.692 185.039 200.185 179.532 200.185 172.809C200.185 166.087 205.692 160.579 212.414 160.579H263.253C269.975 160.579 275.482 166.087 275.482 172.809C275.482 179.532 269.975 185.039 263.253 185.039Z" fill="#1F680D"/>
<path d="M204.656 172.809C204.656 172.809 195.748 180.342 198.015 189.429C200.283 198.517 213.693 198.533 213.159 192.474C212.754 187.793 197.383 182.253 196.557 198.241C195.731 214.213 217.661 220.725 228.286 212.561" stroke="#1F680D" stroke-miterlimit="10"/>
<path d="M206.372 172.258C206.68 173.198 206.162 174.218 205.206 174.526C204.267 174.834 203.246 174.316 202.939 173.36C202.631 172.42 203.149 171.4 204.105 171.092C205.06 170.8 206.065 171.319 206.372 172.258Z" fill="#1F680D"/>
<path d="M205.724 172.469C205.919 173.068 205.595 173.7 204.996 173.878C204.396 174.073 203.765 173.749 203.587 173.149C203.392 172.55 203.716 171.918 204.315 171.74C204.915 171.546 205.546 171.87 205.724 172.469Z" fill="#1F680D"/>
<path d="M159.258 109.326L179.503 111.61L218.455 108.516L275.806 109.164L305.088 106.734L302.837 74.9036L280.049 73.4457H191.65L166.368 76.8312L154.042 89.3853" fill="#1F680D"/>
<path d="M179.049 87.409H141.102L163.728 73.4457H192.622L179.049 87.409Z" fill="#78B930"/>
<path d="M216.997 87.409H179.049L192.622 73.4457H221.516L216.997 87.409Z" fill="#1F680D"/>
<path d="M254.945 87.409H216.997L221.516 73.4457H250.426L254.945 87.409Z" fill="#78B930"/>
<path d="M292.909 87.409H254.945L250.426 73.4457H279.32L292.909 87.409Z" fill="#1F680D"/>
<path d="M330.856 87.409H292.909L279.32 73.4457H308.214L330.856 87.409Z" fill="#78B930"/>
<path d="M311.875 129.898C322.353 129.898 330.857 121.394 330.857 110.913V87.4091H292.909V110.913C292.909 121.41 301.396 129.898 311.875 129.898Z" fill="#1F680D"/>
<path d="M273.927 129.898C284.406 129.898 292.909 121.394 292.909 110.913V87.4091H254.961V110.913C254.945 121.41 263.448 129.898 273.927 129.898Z" fill="#78B930"/>
<path d="M235.979 129.898C246.458 129.898 254.961 121.394 254.961 110.913V87.4091H217.013V110.913C216.997 121.41 225.5 129.898 235.979 129.898Z" fill="#1F680D"/>
<path d="M198.015 129.898C208.494 129.898 216.997 121.394 216.997 110.913V87.4091H179.049V110.913C179.049 121.41 187.536 129.898 198.015 129.898Z" fill="#78B930"/>
<path d="M160.067 129.898C170.546 129.898 179.049 121.394 179.049 110.913V87.4091H141.102V110.913C141.102 121.41 149.588 129.898 160.067 129.898Z" fill="#1F680D"/>
<path d="M185.009 363.841H20.8607C11.0782 363.841 3.1582 355.904 3.1582 346.136V261.011C3.1582 251.227 11.0944 243.306 20.8607 243.306H185.009C194.792 243.306 202.728 251.244 202.728 261.011V346.136C202.712 355.904 194.792 363.841 185.009 363.841Z" fill="#F49B4B"/>
<path d="M202.728 325.159H3.1582V340.758H202.728V325.159Z" fill="#F7B746"/>
<path d="M202.728 314.824H3.1582V319.003H202.728V314.824Z" fill="#F7B746"/>
<path d="M54.9375 272.14H11.5154V287.739H54.9375V272.14Z" fill="#FDE0BC"/>
<path d="M114.086 272.14H70.6641V287.739H114.086V272.14Z" fill="#FDE0BC"/>
<path d="M146.705 297.248C155.436 297.248 162.513 290.17 162.513 281.438C162.513 272.707 155.436 265.628 146.705 265.628C137.975 265.628 130.898 272.707 130.898 281.438C130.898 290.17 137.975 297.248 146.705 297.248Z" fill="#A9D475"/>
<path d="M173.283 297.248C182.014 297.248 189.091 290.17 189.091 281.438C189.091 272.707 182.014 265.628 173.283 265.628C164.553 265.628 157.476 272.707 157.476 281.438C157.476 290.17 164.553 297.248 173.283 297.248Z" fill="#FDE0BC"/>
<path d="M61.3026 344.905H29.2503V351.806H61.3026V344.905Z" fill="#F7B746"/>
<path d="M85.1435 344.905H78.2439V351.806H85.1435V344.905Z" fill="#F7B746"/>
<path d="M192.525 231.773C192.525 238.123 187.374 243.274 181.025 243.274C174.676 243.274 169.526 238.123 169.526 231.773C169.526 225.423 174.676 220.272 181.025 220.272C187.374 220.255 192.525 225.407 192.525 231.773Z" fill="#78B930"/>
<path d="M181.025 221.6C175.405 221.6 170.854 226.152 170.854 231.773C170.854 237.394 175.405 241.946 181.025 241.946C186.645 241.946 191.196 237.394 191.196 231.773C191.196 226.152 186.645 221.6 181.025 221.6ZM181.025 241.249C175.794 241.249 171.534 237.005 171.534 231.756C171.534 226.524 175.778 222.264 181.025 222.264C186.257 222.264 190.516 226.508 190.516 231.756C190.516 237.005 186.273 241.249 181.025 241.249Z" fill="#A9D475"/>
<path d="M181.025 223.527C176.474 223.527 172.781 227.221 172.781 231.773C172.781 236.325 176.474 240.018 181.025 240.018C185.576 240.018 189.269 236.325 189.269 231.773C189.269 227.221 185.576 223.527 181.025 223.527ZM181.025 239.451C176.782 239.451 173.332 236.001 173.332 231.756C173.332 227.512 176.782 224.062 181.025 224.062C185.269 224.062 188.718 227.512 188.718 231.756C188.718 236.017 185.269 239.451 181.025 239.451Z" fill="#A9D475"/>
<path d="M180.151 234.64V236.616H178.337V234.64H177.009V233.765H178.337V232.858H177.009V232H178.337V226.913H181.463C183.633 226.913 185.042 227.869 185.042 229.91V229.958C185.042 232 183.568 232.923 181.511 232.923H180.151V233.749H183.244V234.624H180.151V234.64ZM181.479 231.627C182.677 231.627 183.309 231.044 183.309 229.975V229.926C183.309 228.776 182.612 228.322 181.479 228.322H180.167V231.627H181.479Z" fill="#1F680D"/>
<path d="M396.338 180.698C396.338 187.048 391.187 192.199 384.838 192.199C378.489 192.199 373.339 187.048 373.339 180.698C373.339 174.348 378.489 169.197 384.838 169.197C391.187 169.197 396.338 174.348 396.338 180.698Z" fill="#78B930"/>
<path d="M384.822 170.541C379.202 170.541 374.651 175.093 374.651 180.714C374.651 186.335 379.202 190.887 384.822 190.887C390.442 190.887 394.993 186.335 394.993 180.714C394.993 175.093 390.442 170.541 384.822 170.541ZM384.822 190.19C379.591 190.19 375.331 185.946 375.331 180.698C375.331 175.466 379.575 171.205 384.822 171.205C390.053 171.205 394.313 175.449 394.313 180.698C394.313 185.946 390.07 190.19 384.822 190.19Z" fill="#A9D475"/>
<path d="M384.822 172.469C380.271 172.469 376.578 176.162 376.578 180.714C376.578 185.266 380.271 188.959 384.822 188.959C389.373 188.959 393.066 185.266 393.066 180.714C393.066 176.146 389.389 172.469 384.822 172.469ZM384.822 188.392C380.579 188.392 377.129 184.942 377.129 180.698C377.129 176.454 380.579 173.004 384.822 173.004C389.066 173.004 392.515 176.454 392.515 180.698C392.515 184.958 389.082 188.392 384.822 188.392Z" fill="#A9D475"/>
<path d="M384.693 183.419V185.039H383.219V183.419H382.134V182.707H383.219V181.961H382.134V181.265H383.219V177.118H385.778C387.543 177.118 388.693 177.895 388.693 179.564V179.613C388.693 181.281 387.495 182.026 385.81 182.026H384.709V182.707H387.235V183.419H384.693ZM385.762 180.973C386.733 180.973 387.252 180.503 387.252 179.629V179.58C387.252 178.641 386.685 178.284 385.762 178.284H384.693V180.973H385.762Z" fill="#1F680D"/>
<path d="M407.319 164.904C407.319 168.808 404.16 171.967 400.257 171.967C396.354 171.967 393.196 168.808 393.196 164.904C393.196 161 396.354 157.841 400.257 157.841C404.16 157.841 407.319 161 407.319 164.904Z" fill="#78B930"/>
<path d="M400.257 158.668C396.807 158.668 394.021 161.47 394.021 164.904C394.021 168.338 396.823 171.141 400.257 171.141C403.707 171.141 406.493 168.338 406.493 164.904C406.493 161.47 403.707 158.668 400.257 158.668ZM400.257 170.719C397.05 170.719 394.443 168.111 394.443 164.904C394.443 161.697 397.05 159.089 400.257 159.089C403.48 159.089 406.071 161.697 406.071 164.904C406.071 168.111 403.48 170.719 400.257 170.719Z" fill="#1F680D"/>
<path d="M400.257 159.85C397.471 159.85 395.204 162.118 395.204 164.904C395.204 167.69 397.471 169.958 400.257 169.958C403.043 169.958 405.31 167.69 405.31 164.904C405.327 162.102 403.059 159.85 400.257 159.85ZM400.257 169.618C397.65 169.618 395.544 167.512 395.544 164.904C395.544 162.296 397.65 160.19 400.257 160.19C402.865 160.19 404.97 162.296 404.97 164.904C404.986 167.512 402.865 169.618 400.257 169.618Z" fill="#1F680D"/>
<path d="M400.16 166.702V167.949H399.01V166.702H398.168V166.151H399.01V165.584H398.168V165.05H399.01V161.843H400.986C402.346 161.843 403.237 162.442 403.237 163.738V163.77C403.237 165.066 402.298 165.649 401.002 165.649H400.144V166.168H402.087V166.718H400.16V166.702ZM400.986 164.807C401.731 164.807 402.136 164.434 402.136 163.77V163.738C402.136 163.009 401.699 162.733 400.986 162.733H400.16V164.823H400.986V164.807Z" fill="#1F680D"/>
<path d="M393.358 204.364C393.358 207.377 390.912 209.807 387.916 209.807C384.919 209.807 382.474 207.361 382.474 204.364C382.474 201.368 384.919 198.922 387.916 198.922C390.912 198.922 393.358 201.351 393.358 204.364Z" fill="#78B930"/>
<path d="M387.899 199.553C385.243 199.553 383.073 201.708 383.073 204.38C383.073 207.037 385.227 209.208 387.899 209.208C390.556 209.208 392.726 207.053 392.726 204.38C392.726 201.708 390.556 199.553 387.899 199.553ZM387.899 208.868C385.421 208.868 383.397 206.859 383.397 204.364C383.397 201.886 385.405 199.861 387.899 199.861C390.377 199.861 392.402 201.87 392.402 204.364C392.402 206.843 390.377 208.868 387.899 208.868Z" fill="#A9D475"/>
<path d="M387.899 200.46C385.745 200.46 383.996 202.21 383.996 204.364C383.996 206.519 385.745 208.268 387.899 208.268C390.053 208.268 391.803 206.519 391.803 204.364C391.803 202.21 390.053 200.46 387.899 200.46ZM387.899 208.009C385.891 208.009 384.255 206.373 384.255 204.364C384.255 202.356 385.891 200.72 387.899 200.72C389.908 200.72 391.544 202.356 391.544 204.364C391.544 206.373 389.908 208.009 387.899 208.009Z" fill="#A9D475"/>
<path d="M387.543 205.547V206.357H386.798V205.547H386.247V205.19H386.798V204.818H386.247V204.461H386.798V202.356H388.094C388.984 202.356 389.568 202.761 389.568 203.587V203.603C389.568 204.445 388.952 204.834 388.11 204.834H387.543V205.174H388.823V205.531H387.543V205.547ZM388.078 204.299C388.563 204.299 388.839 204.056 388.839 203.619V203.603C388.839 203.133 388.547 202.939 388.078 202.939H387.543V204.299H388.078Z" fill="#1F680D"/>
<path d="M403.756 196.33C403.756 199.343 401.31 201.773 398.314 201.773C395.317 201.773 392.872 199.327 392.872 196.33C392.872 193.317 395.317 190.887 398.314 190.887C401.31 190.887 403.756 193.317 403.756 196.33Z" fill="#78B930"/>
<path d="M398.297 191.503C395.641 191.503 393.471 193.657 393.471 196.33C393.471 198.986 395.625 201.157 398.297 201.157C400.954 201.157 403.124 199.003 403.124 196.33C403.124 193.657 400.97 191.503 398.297 191.503ZM398.297 200.817C395.819 200.817 393.795 198.808 393.795 196.314C393.795 193.835 395.803 191.81 398.297 191.81C400.775 191.81 402.8 193.819 402.8 196.314C402.8 198.808 400.792 200.817 398.297 200.817Z" fill="#1F680D"/>
<path d="M398.297 192.426C396.143 192.426 394.394 194.175 394.394 196.33C394.394 198.484 396.143 200.234 398.297 200.234C400.452 200.234 402.201 198.484 402.201 196.33C402.217 194.175 400.468 192.426 398.297 192.426ZM398.297 199.974C396.289 199.974 394.653 198.338 394.653 196.33C394.653 194.321 396.289 192.685 398.297 192.685C400.306 192.685 401.942 194.321 401.942 196.33C401.942 198.338 400.322 199.974 398.297 199.974Z" fill="#1F680D"/>
<path d="M398.087 198.014V199.035H397.148V198.014H396.467V197.561H397.148V197.091H396.467V196.654H397.148V194.046H398.751C399.869 194.046 400.597 194.548 400.597 195.585V195.617C400.597 196.67 399.836 197.14 398.783 197.14H398.087V197.561H399.674V198.014H398.087ZM398.751 196.459C399.366 196.459 399.69 196.151 399.69 195.617V195.585C399.69 194.985 399.334 194.758 398.751 194.758H398.071V196.459H398.751Z" fill="#1F680D"/>
<path opacity="0.54" d="M360.641 431.569C382.449 431.569 400.128 424.991 400.128 416.876C400.128 408.762 382.449 402.184 360.641 402.184C338.833 402.184 321.155 408.762 321.155 416.876C321.155 424.991 338.833 431.569 360.641 431.569Z" fill="#53A100"/>
<path d="M360.641 428.264C382.449 428.264 400.128 421.686 400.128 413.572C400.128 405.457 382.449 398.879 360.641 398.879C338.833 398.879 321.155 405.457 321.155 413.572C321.155 421.686 338.833 428.264 360.641 428.264Z" fill="#A9D475"/>
<path d="M368.934 408.356V412.454H385.891L374.392 408.356H368.934Z" fill="#000F1F"/>
<path d="M328.411 408.356V412.454L338.663 417.152H343.263L334.662 408.356H328.411Z" fill="#000F1F"/>
<path d="M374.392 299.014V408.356H368.917C368.917 408.356 359.799 382.843 361.257 357.686L355.053 319.781L334.646 408.356H328.443C328.443 408.356 323.05 375.65 330.63 355.872L333.545 299.014H374.392Z" fill="#003591"/>
<path d="M374.392 299.014C374.392 299.014 364.415 306.806 333.221 305.866L333.577 299.014L357.143 294.656" fill="#002267"/>
<path d="M355.086 319.797L362.066 305.866L361.273 357.702L355.086 319.797Z" fill="#002267"/>
<path d="M361.321 197.723C360.852 196.945 360.479 196.135 360.155 195.309C355.782 195.18 347.927 195.844 346.648 202.145C346.648 202.145 338.582 210.779 348.769 223.609L353.094 224.095L359.329 218.943L367.849 207.07C367.849 207.07 368.853 207.037 370.084 206.681C366.52 204.445 363.459 201.319 361.321 197.723Z" fill="#131637"/>
<path d="M368.561 212.043C368.561 212.043 371.444 213.922 371.995 218.7H366.132L368.561 212.043Z" fill="#FF907D"/>
<path d="M351.814 223.609C351.814 223.609 354.325 220.174 354.973 216.449C354.973 216.449 350.405 215.509 351.183 212.172C351.83 209.402 355.313 210.342 356.414 212.723V215.898C356.414 215.898 358.196 215.849 358.519 209.759L360.609 207.07H367.848C367.848 207.07 370.505 213.144 369.695 220.596H364.787C364.787 220.596 365.84 222.523 369.258 223.236C368.934 224.661 368.513 226.103 367.865 227.561H360.657V232.826L356.527 234.705L352.964 235.839L349.935 234.446L348.818 230.574V223.625H351.814V223.609Z" fill="#FFCDA9"/>
<path d="M360.609 207.07C360.609 207.07 365.937 209.953 371.995 208.835L370.084 206.681C370.084 206.681 374.845 206.276 375.493 200.201H370.861C370.861 200.201 375.493 197.01 373.744 192.361L367.314 194.273L360.188 195.293L360.657 200.72" fill="#131637"/>
<path d="M368.302 236.406C368.302 236.406 381.097 251.697 385.859 255.212C396.807 251.195 403.917 241.476 403.917 241.476L416 247.291C416 247.291 406.509 261.838 387.608 271.476C375.007 269.613 367.265 257.561 367.265 257.561L368.302 236.406Z" fill="#CC163C"/>
<path d="M370.31 239.37L369.581 243.225L367.427 254.629L367.282 257.577C367.282 257.577 371.363 263.895 378.392 268.09L370.31 239.37Z" fill="#BF0A32"/>
<path d="M333.577 299.014C333.577 299.014 355.944 305.088 374.392 299.014C374.392 299.014 372.043 260.04 370.991 242.318C370.699 237.491 366.699 233.717 361.856 233.717L346 233.393C345.643 233.393 342.987 234.251 341.627 235.822C339.084 238.771 336.995 241.573 336.719 245.461L332.816 299.694C333.577 299.014 333.577 299.014 333.577 299.014Z" fill="#DF335E"/>
<path d="M373.825 289.619C354.94 278.83 352.268 261.789 350.033 247.972C348.397 237.896 342.987 236.665 339.748 238.139C338.112 240.326 336.93 242.594 336.719 245.461L335.99 255.634C336.347 257.48 336.768 259.133 337.108 260.38C344.267 287.043 363.783 295.677 374.359 298.447C374.278 297.2 374.1 293.992 373.825 289.619Z" fill="#E03354"/>
<path d="M361.129 250.191H369.583V247.291H361.129V250.191Z" fill="#CC163C"/>
<path d="M357.596 237.507C357.596 237.507 350.146 261.983 355.005 292.113L362.779 297.977L368.48 292.113C368.48 292.113 355.167 257.594 359.297 237.41L357.596 237.507Z" fill="#BF0A33"/>
<path d="M357.596 237.507C357.596 237.507 350.632 261.53 356.106 291.093L363.994 296.859L369.581 291.093C369.581 291.093 355.588 257.221 359.297 237.41L357.596 237.507Z" fill="#001F78"/>
<path d="M359.281 238.171C358.422 239.03 357.046 239.03 356.187 238.171L352.268 234.251L357.953 233.7C358.147 233.668 358.552 234.057 358.746 234.089L361.791 235.66L359.281 238.171Z" fill="#003591"/>
<path d="M357.953 233.717L363.038 238.835C363.038 238.835 364.415 234.089 360.625 230.866C360.625 230.849 360.058 233.182 357.953 233.717Z" fill="#CC163C"/>
<path d="M357.953 233.717C357.953 233.717 351.507 233.344 348.753 229.813C348.753 229.813 346.664 231.271 345.352 233.733C345.352 233.733 347.538 239.58 354.13 239.143L357.953 233.717Z" fill="#CC163C"/>
<path d="M409.797 289.57H368.918C365.484 289.57 362.715 286.784 362.715 283.366V242.481C362.715 239.046 365.5 236.276 368.918 236.276H409.797C413.231 236.276 416 239.063 416 242.481V283.366C416 286.8 413.231 289.57 409.797 289.57Z" fill="#FFE51C"/>
<path d="M395.123 236.26H383.575V289.57H395.123V236.26Z" fill="#FFA81C"/>
<path opacity="0.4" d="M390.507 287.901C390.507 287.901 370.294 279.624 362.698 263.943V278.053L376.594 289.57L388.061 291.19" fill="#FFA81C"/>
<path d="M337.966 239.629C339.975 236.438 347.555 234.559 350.972 246.643C355.28 261.87 360.609 281.147 388.078 288.177V294.43C388.078 294.43 353.823 296.357 339.57 260.461C337.772 255.941 334.015 245.898 337.966 239.629Z" fill="#CC163C"/>
<path d="M390.507 294.446C390.507 294.446 396.224 295.175 405.116 289.57H395.139L390.523 287.901V294.446H390.507Z" fill="#FFCDA9"/>
<path d="M386.994 294.452H390.508V287.908H386.994V294.452Z" fill="#CC163C"/>
<path d="M364.415 212.399C364.415 213.889 365.176 215.104 366.116 215.104C367.055 215.104 367.816 213.889 367.816 212.399C367.816 210.909 367.055 209.694 366.116 209.694C365.176 209.694 364.415 210.892 364.415 212.399Z" stroke="#001F78" stroke-width="0.3121" stroke-miterlimit="10"/>
<path d="M355.993 212.043H364.415" stroke="#001F78" stroke-width="0.3121" stroke-miterlimit="10" stroke-linecap="round" stroke-linejoin="round"/>
<path d="M367.816 212.399C367.816 212.399 368.772 212.14 369.565 212.399" stroke="#001F78" stroke-width="0.3121" stroke-miterlimit="10" stroke-linecap="round" stroke-linejoin="round"/>
<path d="M402.103 207.572V203.635C402.103 199.715 398.929 196.54 395.009 196.54C391.09 196.54 387.916 199.715 387.916 203.635V207.572" stroke="white" stroke-width="1.2486" stroke-miterlimit="10"/>
<path d="M385.729 236.26H404.258C406.558 236.26 408.436 234.397 408.436 232.081V205.336H381.551V232.081C381.551 234.397 383.429 236.26 385.729 236.26Z" fill="#CC163C"/>
<path d="M404.274 236.26H385.745C385.13 236.26 384.531 236.114 384.012 235.871L408.469 231.951V232.081C408.436 234.397 406.574 236.26 404.274 236.26Z" fill="#BF0A33"/>
<path d="M401.083 209.094C401.083 209.71 401.585 210.212 402.201 210.212C402.816 210.212 403.318 209.71 403.318 209.094C403.318 208.479 402.816 207.977 402.201 207.977C401.585 207.977 401.083 208.479 401.083 209.094Z" fill="#A9D475"/>
<path d="M387.899 210.212C388.517 210.212 389.017 209.712 389.017 209.094C389.017 208.477 388.517 207.977 387.899 207.977C387.282 207.977 386.782 208.477 386.782 209.094C386.782 209.712 387.282 210.212 387.899 210.212Z" fill="#A9D475"/>
<path d="M226.958 402.751H186.078C182.645 402.751 179.875 399.965 179.875 396.547V335.364C179.875 331.93 182.661 329.16 186.078 329.16H226.958C230.391 329.16 233.161 331.946 233.161 335.364V396.531C233.161 399.965 230.391 402.751 226.958 402.751Z" fill="#FFD11C"/>
<path opacity="0.4" d="M189.172 355.645L195.456 402.751H179.875L189.172 355.645Z" fill="#FFD11C"/>
<path d="M212.284 329.16H200.736V402.751H212.284V329.16Z" fill="#FFA81C"/>
<path d="M182.969 406.785H142.073C138.64 406.785 135.87 403.998 135.87 400.581V359.695C135.87 356.261 138.656 353.491 142.073 353.491H182.953C186.386 353.491 189.156 356.277 189.156 359.695V400.581C189.172 404.015 186.386 406.785 182.969 406.785Z" fill="#FFE51C"/>
<path d="M168.295 353.474H156.747V406.784H168.295V353.474Z" fill="#FFA81C"/>
<path d="M339.942 22.6463C339.942 22.6463 342.566 23.0999 344.575 20.4433C344.575 20.4433 349.239 23.5858 353.596 20.8158C353.596 20.8158 357.029 18.0458 354.6 12.4249C351.798 5.94535 343.587 6.04254 339.942 8.08359C336.314 10.1246 335.553 12.1657 335.553 12.1657L343.959 14.9681L342.906 19.4875L339.942 22.6463Z" fill="#131637"/>
<path d="M244.385 371.293H242.36V366.061C242.36 361.428 238.587 357.654 233.938 357.654C229.306 357.654 225.532 361.428 225.532 366.061V371.293H223.508V366.061C223.508 360.31 228.189 355.629 233.938 355.629C239.688 355.629 244.369 360.31 244.369 366.061V371.293H244.385Z" fill="white"/>
<path d="M220.268 409.376H247.608C249.908 409.376 251.786 407.513 251.786 405.197V368.328H216.09V405.197C216.106 407.513 217.969 409.376 220.268 409.376Z" fill="#A9D475"/>
<path d="M242.02 373.301C242.02 374.111 242.684 374.776 243.494 374.776C244.32 374.776 244.968 374.111 244.968 373.301C244.968 372.492 244.304 371.827 243.494 371.827C242.684 371.827 242.02 372.492 242.02 373.301Z" fill="#A9D475"/>
<path d="M223.038 373.301C223.038 374.111 223.702 374.776 224.512 374.776C225.338 374.776 225.986 374.111 225.986 373.301C225.986 372.492 225.322 371.827 224.512 371.827C223.702 371.827 223.038 372.492 223.038 373.301Z" fill="#A9D475"/>
</svg>
