<svg width="732" height="519" viewBox="0 0 732 519" fill="none" xmlns="http://www.w3.org/2000/svg">
<path opacity="0.2" d="M46.9971 507.902H31.1693L32.5304 500.755L11.2568 511.477H27.0846L25.7235 518.625L46.9971 507.902Z" fill="white"/>
<path opacity="0.2" d="M144.625 360.071H121.915L123.868 349.817L93.3452 365.201H116.055L114.102 375.457L144.625 360.071Z" fill="white"/>
<path opacity="0.1" d="M36.4048 372.852H20.577L21.9381 365.706L0.664551 376.427H16.4923L15.1313 383.576L36.4048 372.852Z" fill="white"/>
<path opacity="0.08" d="M81.4412 251.936H56.6673L58.7977 240.75L25.5 257.532H50.2739L48.1435 268.721L81.4412 251.936Z" fill="white"/>
<path opacity="0.2" d="M731.283 256.028H716.143L717.445 249.192L697.096 259.448H712.236L710.934 266.286L731.283 256.028Z" fill="white"/>
<path opacity="0.1" d="M116.502 180.329H100.674L102.035 173.182L80.7617 183.904H96.5895L95.2284 191.052L116.502 180.329Z" fill="white"/>
<path opacity="0.1" d="M113.226 435.943H91.2043L93.098 426L63.5 440.917H85.5213L83.6276 450.863L113.226 435.943Z" fill="white"/>
<path opacity="0.1" d="M67.8327 50.2523H45.1233L47.0761 39.9982L16.5532 55.3816H39.2626L37.3098 65.6379L67.8327 50.2523Z" fill="white"/>
<path opacity="0.2" d="M400.336 203.615H372.121L374.547 190.875L336.625 209.988H364.84L362.413 222.73L400.336 203.615Z" fill="white"/>
<path opacity="0.2" d="M591.245 351.997H565.783L567.973 340.5L533.75 357.748H559.212L557.023 369.248L591.245 351.997Z" fill="white"/>
<path opacity="0.2" d="M658.692 139.826H642.864L644.225 132.679L622.952 143.401H638.779L637.418 150.549L658.692 139.826Z" fill="white"/>
<path opacity="0.2" d="M681.115 326.272H665.287L666.649 319.125L645.375 329.847H661.203L659.842 336.995L681.115 326.272Z" fill="white"/>
<path opacity="0.2" d="M682.523 7.42464H666.695L668.056 0.277832L646.783 10.9996H662.61L661.249 18.148L682.523 7.42464Z" fill="white"/>
<path opacity="0.1" d="M631.62 69.372H606.158L608.348 57.875L574.125 75.1231H599.587L597.398 86.6226L631.62 69.372Z" fill="white"/>
</svg>
