<svg width="80" height="80" viewBox="0 0 80 80" fill="none" xmlns="http://www.w3.org/2000/svg">
<circle cx="40" cy="40" r="40" fill="white"/>
<path opacity="0.6" d="M62.5907 33.2591H60.383V28.1477H24.6223C23.4768 28.1477 22.5396 29.0827 22.5396 30.2255V57.2369H60.383V43.6481H62.5907V33.2591Z" fill="#F6D159"/>
<path d="M53.8014 40.4482C54.9261 40.4482 55.8633 39.534 55.8633 38.412C55.8633 37.29 54.9469 36.3757 53.8014 36.3757C52.6559 36.3757 51.7395 37.29 51.7395 38.412C51.7395 39.534 52.6559 40.4482 53.8014 40.4482Z" fill="#434343"/>
<path d="M62.4658 31.5137V25.6958C62.4658 23.0986 60.3622 21 57.7588 21H19.707C17.1036 21 15 23.0986 15 25.6958V54.6395C15 57.2368 17.1036 59.3354 19.707 59.3354H57.7588C60.3622 59.3354 62.4658 57.2368 62.4658 54.6395V45.3102H64.2152V31.5137H62.4658ZM60.0706 31.5137H50.0942L44.8041 38.8898L50.0526 45.1648L50.1359 45.2687H60.0498V54.598C60.0498 55.8862 59.0084 56.9251 57.7171 56.9251H19.6654C18.3741 56.9251 17.3327 55.8862 17.3327 54.598V25.6958C17.3327 24.4076 18.3741 23.3687 19.6654 23.3687H57.7171C59.0084 23.3687 60.0498 24.4076 60.0498 25.6958V31.5137H60.0706ZM61.8409 33.9031V42.9208H51.2814L47.8241 38.7859L51.3231 33.8823H61.8409V33.9031Z" fill="#434343"/>
</svg>
