<svg width="193" height="90" viewBox="0 0 193 90" fill="none" xmlns="http://www.w3.org/2000/svg">
<path opacity="0.6" d="M193 36.0313H107.498L114.856 0L0 53.9687H85.5023L78.1438 90L193 36.0313Z" fill="#EEEEEE"/>
<g clip-path="url(#clip0)">
<path d="M125.188 48.9069L125.116 48.9296L119.56 39.8927H117.962L117.509 35.8385L114.027 35.6347L113.98 34.0039C113.98 33.9133 113.527 33.936 113.527 33.8454L105.371 33.6416V29.6327H79.4973C76.5641 29.6327 74.1794 31.8976 74.1794 34.6834V59.2575V59.7784C74.1794 60.6844 74.1794 61.4998 74.3702 62.2245L75.9203 62.2019C75.9918 64.7612 78.1857 66.7996 80.8804 66.7996C83.6228 66.7996 85.8405 64.6933 85.8405 62.0886C85.8405 62.066 85.8405 62.066 85.8405 62.0433L109.139 61.6809C109.115 61.8395 109.091 62.0207 109.091 62.1792C109.091 64.7838 111.309 66.8902 114.051 66.8902C116.794 66.8902 119.011 64.7838 119.011 62.1792C119.011 61.9527 118.964 61.7262 118.94 61.5224L124.568 61.4318L125.188 48.9069Z" fill="#D1D1D1"/>
<path d="M124.329 44.8981L118.678 36.3594C117.056 34.3663 114.218 33.0074 111.619 33.0074H105.872V27.0507C105.872 24.2649 103.487 22 100.554 22H71.3179C68.3847 22 66.0001 24.2649 66.0001 27.0507V52.4175V52.9385C66.0001 54.5239 65.9762 55.9055 66.9062 56.7888C67.3832 57.2418 68.027 57.4909 68.7901 57.4909C68.8617 57.4909 68.9094 57.4909 68.9094 57.4909C68.9571 57.5815 69.0524 57.8533 69.0047 58.7592C69.0047 58.8951 69.0047 59.031 69.0047 59.1216C69.0047 59.9823 69.2909 60.6844 69.8632 61.228C70.8886 62.1792 72.4387 62.2698 74.0841 62.2698H74.108C74.5372 65.0783 77.3273 68 80.952 68C84.4097 68 87.3667 65.5086 87.796 62.2698H107.207C107.636 65.5086 110.593 68 114.051 68C117.509 68 120.466 65.486 120.895 62.2698H121.635C124.568 62.2698 126.952 60.0049 126.952 57.2191V52.4402C127 50.0394 125.832 46.7326 124.329 44.8981ZM114.075 57.3324C116.46 57.3324 118.391 59.1669 118.391 61.4318C118.391 63.6967 116.46 65.5313 114.075 65.5313C111.69 65.5313 109.759 63.6967 109.759 61.4318C109.759 59.1669 111.69 57.3324 114.075 57.3324ZM113.622 49.8129H123.948C124.234 50.7868 124.401 51.6928 124.401 52.4175V57.1965C124.401 58.6233 123.185 59.8011 121.658 59.8011H120.752C119.965 56.9247 117.199 54.8636 114.075 54.8636C110.951 54.8636 108.161 56.9247 107.398 59.8011H105.848V35.4761H108.304V44.7622C108.304 47.548 110.689 49.8129 113.622 49.8129ZM110.88 44.7622V35.4761H111.595C113.336 35.4761 115.482 36.4727 116.555 37.7863L122.207 46.325C122.445 46.6194 122.66 46.9591 122.898 47.3895H113.598C112.12 47.3668 110.88 46.2117 110.88 44.7622ZM80.9758 65.5313C78.5911 65.5313 76.6596 63.6967 76.6596 61.4318C76.6596 59.1669 78.5911 57.3324 80.9758 57.3324C83.3605 57.3324 85.2921 59.1669 85.2921 61.4318C85.2921 63.6967 83.3605 65.5313 80.9758 65.5313ZM70.7694 55.7469C70.4356 55.4072 69.8155 54.9995 68.814 54.9995C68.7901 54.9995 68.7663 54.9995 68.7424 54.9995C68.5994 54.7051 68.5994 53.482 68.5994 52.9385V27.0507C68.5994 25.6238 69.8155 24.4461 71.3417 24.4461H100.554C102.056 24.4461 103.296 25.6012 103.296 27.0507V59.8011H87.6529C86.866 56.9247 84.0997 54.8636 80.9758 54.8636C77.8519 54.8636 75.0618 56.9247 74.2749 59.8011C73.3687 59.8011 72.0333 59.7784 71.6994 59.484C71.6279 59.416 71.604 59.3028 71.604 59.1216V58.8272C71.6517 57.9439 71.6756 56.6529 70.7694 55.7469Z" fill="#434343"/>
</g>
<defs>
<clipPath id="clip0">
<rect width="61" height="46" fill="white" transform="translate(66 22)"/>
</clipPath>
</defs>
</svg>
