<svg width="80" height="80" viewBox="0 0 80 80" fill="none" xmlns="http://www.w3.org/2000/svg">
<circle cx="40" cy="40" r="40" fill="white"/>
<path opacity="0.6" d="M62.6331 64.2204H24.3105L26.7682 25.511H60.113L62.6331 64.2204Z" fill="#F6D159"/>
<path d="M60.2378 24.6383L60.217 24.4513H50.678V24.2228C50.678 18.5919 45.6794 14 39.5562 14C33.4329 14 28.4343 18.5919 28.4343 24.2228V24.4513H19.7701L17.0208 64.719L17 64.9476H62.9662L60.2378 24.6383ZM28.4343 30.7678C27.3929 31.2042 26.6848 32.2223 26.6848 33.3651C26.6848 34.9234 27.9553 36.1909 29.5173 36.1909C31.0794 36.1909 32.3498 34.9234 32.3498 33.3651C32.3498 32.2223 31.6625 31.2042 30.6003 30.7678V26.6122H48.5119V30.7678C47.4706 31.2042 46.7624 32.2223 46.7624 33.3651C46.7624 34.9234 48.033 36.1909 49.595 36.1909C51.1571 36.1909 52.4275 34.9234 52.4275 33.3651C52.4275 32.2223 51.7402 31.2042 50.678 30.7678V26.6122H58.1967L60.6752 62.7867H19.3327L21.8111 26.6122H28.4551V30.7678H28.4343ZM30.6003 24.4513V24.2228C30.6003 19.7763 34.6201 16.1609 39.5562 16.1609C44.4923 16.1609 48.5119 19.7763 48.5119 24.2228V24.4513H30.6003Z" fill="#434343"/>
</svg>
