<svg width="193" height="90" viewBox="0 0 193 90" fill="none" xmlns="http://www.w3.org/2000/svg">
<path opacity="0.6" d="M193 36.0313H107.498L114.856 0L0 53.9687H85.5023L78.1438 90L193 36.0313Z" fill="#EEEEEE"/>
<path d="M116.212 33.1806L92.789 22.687C92.615 22.5966 92.435 22.5184 92.2502 22.4528H92.016C91.8143 22.4196 91.6086 22.4196 91.407 22.4528L91.0791 22.6167L67.5622 33.1806C67.3902 33.3139 67.2504 33.4842 67.1531 33.6788C67.0558 33.8734 67.0035 34.0874 67 34.3049V61.2182C67.0035 61.4357 67.0558 61.6497 67.1531 61.8443C67.2504 62.0389 67.3902 62.2092 67.5622 62.3425L91.3367 73.0001H91.8989C92.18 73.0001 92.461 73.0001 92.461 72.719L116.236 62.0614C116.408 61.9281 116.547 61.7578 116.645 61.5632C116.742 61.3686 116.794 61.1546 116.798 60.9371V34.6094C116.823 34.3416 116.783 34.0718 116.681 33.8229C116.579 33.5741 116.418 33.3537 116.212 33.1806ZM91.8989 24.7482L112.98 34.1175L104.126 38.0526L83.0917 28.9644L91.8989 24.7482ZM90.5169 69.8848L69.2252 60.5155V35.968L90.5169 45.5012V69.8848ZM91.8989 43.5337L70.818 34.1644L80.4918 29.9482L101.221 39.3175L91.8989 43.5337ZM114.573 60.6326L92.9998 70.1658V45.5012L102.369 41.285V46.6021C102.369 46.8941 102.485 47.1741 102.691 47.3805C102.898 47.587 103.178 47.703 103.47 47.703C103.762 47.703 104.042 47.587 104.248 47.3805C104.455 47.1741 104.571 46.8941 104.571 46.6021V40.4652L114.526 36.249L114.573 60.6326Z" fill="#434343"/>
<path d="M115.322 27.8401L118.461 24.069L114.268 23.2258L115.322 20.087L119.304 21.9843L118.882 17.2997H122.443L122.021 21.9843L126.003 20.087L126.846 23.2258L122.443 24.069L125.394 27.5825L122.677 29.4798L120.358 25.2402L118.016 29.4329L115.322 27.8401Z" fill="#CE1037"/>
</svg>
