<svg width="1300" height="285" viewBox="0 0 1300 285" fill="none" xmlns="http://www.w3.org/2000/svg">
<path opacity="0.2" d="M511 218.198H490.629L492.38 209L465 222.8H485.371L483.62 232L511 218.198Z" fill="white"/>
<path opacity="0.2" d="M400 265.198H370.772L373.285 252L334 271.799H363.228L360.715 285L400 265.198Z" fill="white"/>
<path opacity="0.1" d="M169 233.198H148.629L150.38 224L123 237.8H143.371L141.62 247L169 233.198Z" fill="white"/>
<path opacity="0.08" d="M72 161.397H40.1144L42.8563 147L0 168.599H31.8856L29.1437 183L72 161.397Z" fill="white"/>
<path opacity="0.2" d="M1300 127.798H1280.51L1282.19 119L1256 132.2H1275.49L1273.81 141L1300 127.798Z" fill="white"/>
<path opacity="0.1" d="M520 53.1984H499.629L501.38 44L474 57.7996H494.371L492.62 67L520 53.1984Z" fill="white"/>
<path opacity="0.1" d="M310 212.798H281.657L284.094 200L246 219.199H274.343L271.906 232L310 212.798Z" fill="white"/>
<path opacity="0.1" d="M202 13.1977H172.772L175.285 0L136 19.7994H165.228L162.715 33L202 13.1977Z" fill="white"/>
<path opacity="0.2" d="M641 129.397H604.686L607.809 113L559 137.599H595.314L592.191 154L641 129.397Z" fill="white"/>
<path opacity="0.2" d="M1111 247.797H1078.23L1081.05 233L1037 255.199H1069.77L1066.95 270L1111 247.797Z" fill="white"/>
<path opacity="0.2" d="M1097 53.1984H1076.63L1078.38 44L1051 57.7996H1071.37L1069.62 67L1097 53.1984Z" fill="white"/>
<path opacity="0.2" d="M1194 145.198H1173.63L1175.38 136L1148 149.8H1168.37L1166.62 159L1194 145.198Z" fill="white"/>
<path opacity="0.2" d="M1249 223.198H1228.63L1230.38 214L1203 227.8H1223.37L1221.62 237L1249 223.198Z" fill="white"/>
<path opacity="0.2" d="M1009 91.7974H976.229L979.047 77L935 99.1994H967.771L964.953 114L1009 91.7974Z" fill="white"/>
</svg>
